<svg width="124" height="16" viewBox="0 0 124 16" fill="none" xmlns="http://www.w3.org/2000/svg">
<g id="Clip path group">
<mask id="mask0_235_22" style="mask-type:luminance" maskUnits="userSpaceOnUse" x="0" y="0" width="124" height="16">
<g id="clippath">
<path id="Vector" d="M123.214 0.5H0V15.5H123.214V0.5Z" fill="white"/>
</g>
</mask>
<g mask="url(#mask0_235_22)">
<g id="Group">
<path id="Vector_2" d="M17.6287 15.5H12.8447L5.34468 7.07807H14.3522C14.9875 7.07807 15.3115 6.56728 15.3115 5.54568C15.3115 4.52409 14.9875 4.01329 14.3522 4.01329H3.51329V15.5H0V0.5H14.564C15.9095 0.5 16.9684 1.02326 17.7409 2.06977C18.4635 3.01661 18.8248 4.17525 18.8248 5.53322C18.8248 6.8912 18.4635 8.04983 17.7409 8.99668C16.9684 10.0432 15.897 10.5664 14.564 10.5664H13.2184L17.6287 15.4751V15.5Z" fill="#333333"/>
<path id="Vector_3" d="M38.8954 10.7533C38.8954 12.1113 38.422 13.245 37.4626 14.142C36.5158 15.039 35.3572 15.5 33.9867 15.5H25.1786C23.8206 15.5 22.662 15.0515 21.7027 14.142C20.7434 13.2326 20.27 12.1113 20.27 10.7533V5.24668C20.27 3.8887 20.7434 2.75498 21.7027 1.85797C22.662 0.948505 23.8206 0.5 25.1786 0.5H33.9867C35.3447 0.5 36.5033 0.948505 37.4626 1.85797C38.422 2.75498 38.8954 3.8887 38.8954 5.24668V10.7533ZM35.3821 10.7409V5.25914C35.3821 4.42442 34.9211 4.01329 33.9867 4.01329H25.1911C24.2567 4.01329 23.7957 4.42442 23.7957 5.25914V10.7409C23.7957 11.5756 24.2567 11.9867 25.1911 11.9867H33.9867C34.9211 11.9867 35.3821 11.5756 35.3821 10.7409Z" fill="#333333"/>
<path id="Vector_4" d="M55.3779 15.5H40.353V0.5H43.8663V11.9867H55.3779V15.5Z" fill="#333333"/>
<path id="Vector_5" d="M72.8572 4.01329H60.3489V6.24336H72.0349V9.75664H60.3489V11.9867H72.8198V15.5H56.8356V0.5H72.8572V4.01329Z" fill="#333333"/>
<path id="Vector_6" d="M90.8222 15.5H79.2109C77.853 15.5 76.6943 15.0515 75.735 14.142C74.7757 13.2326 74.3023 12.1113 74.3023 10.7533V5.24668C74.3023 3.8887 74.7757 2.75498 75.735 1.85797C76.6819 0.960963 77.8405 0.5 79.2109 0.5H90.8222V4.01329H79.2234C78.289 4.01329 77.8281 4.42442 77.8281 5.25914V10.7409C77.8281 11.5756 78.289 11.9867 79.2234 11.9867H90.8222V15.5Z" fill="#333333"/>
</g>
</g>
</g>
</svg>
