<svg width="124" height="16" viewBox="0 0 124 16" fill="none" xmlns="http://www.w3.org/2000/svg">
<g clip-path="url(#clip0_54_2272)">
<path d="M96.4535 0.5L92.4294 15.5H103.729L104.527 12.5598H96.4659L97.3256 9.38289H104.29L105.075 6.49253H98.1229L98.9327 3.4402H106.856L107.654 0.5H96.4535Z" fill="#74AF28"/>
<path d="M119.539 0.5L112.936 10.8779L111.914 0.5H108.414L110.345 15.5H113.235L123.214 0.5H119.539Z" fill="#74AF28"/>
<mask id="mask0_54_2272" style="mask-type:luminance" maskUnits="userSpaceOnUse" x="0" y="0" width="124" height="16">
<path d="M123.214 0.5H0V15.5H123.214V0.5Z" fill="white"/>
</mask>
<g mask="url(#mask0_54_2272)">
<path d="M17.6287 15.5H12.8447L5.34468 7.07807H14.3522C14.9875 7.07807 15.3115 6.56728 15.3115 5.54568C15.3115 4.52409 14.9875 4.01329 14.3522 4.01329H3.51329V15.5H0V0.5H14.564C15.9095 0.5 16.9684 1.02326 17.7409 2.06977C18.4635 3.01661 18.8248 4.17525 18.8248 5.53322C18.8248 6.8912 18.4635 8.04983 17.7409 8.99668C16.9684 10.0432 15.897 10.5664 14.564 10.5664H13.2184L17.6287 15.4751V15.5Z" fill="#333333"/>
<path d="M38.8953 10.7533C38.8953 12.1113 38.4219 13.245 37.4626 14.142C36.5158 15.039 35.3571 15.5 33.9867 15.5H25.1786C23.8206 15.5 22.662 15.0515 21.7027 14.142C20.7433 13.2326 20.2699 12.1113 20.2699 10.7533V5.24668C20.2699 3.8887 20.7433 2.75498 21.7027 1.85797C22.662 0.948505 23.8206 0.5 25.1786 0.5H33.9867C35.3447 0.5 36.5033 0.948505 37.4626 1.85797C38.4219 2.75498 38.8953 3.8887 38.8953 5.24668V10.7533ZM35.3821 10.7409V5.25914C35.3821 4.42442 34.9211 4.01329 33.9867 4.01329H25.191C24.2566 4.01329 23.7957 4.42442 23.7957 5.25914V10.7409C23.7957 11.5756 24.2566 11.9867 25.191 11.9867H33.9867C34.9211 11.9867 35.3821 11.5756 35.3821 10.7409Z" fill="#333333"/>
<path d="M55.3779 15.5H40.353V0.5H43.8663V11.9867H55.3779V15.5Z" fill="#333333"/>
<path d="M72.8571 4.01329H60.3488V6.24336H72.0349V9.75664H60.3488V11.9867H72.8198V15.5H56.8355V0.5H72.8571V4.01329Z" fill="#333333"/>
<path d="M90.8223 15.5H79.211C77.853 15.5 76.6944 15.0515 75.735 14.142C74.7757 13.2326 74.3023 12.1113 74.3023 10.7533V5.24668C74.3023 3.8887 74.7757 2.75498 75.735 1.85797C76.6819 0.960963 77.8405 0.5 79.211 0.5H90.8223V4.01329H79.2234C78.289 4.01329 77.8281 4.42442 77.8281 5.25914V10.7409C77.8281 11.5756 78.289 11.9867 79.2234 11.9867H90.8223V15.5Z" fill="#333333"/>
</g>
</g>
<defs>
<clipPath id="clip0_54_2272">
<rect width="123.214" height="15" fill="white" transform="translate(0 0.5)"/>
</clipPath>
</defs>
</svg>
